<mxfile host="app.diagrams.net" agent="Mozilla/5.0 (Macintosh; Intel Mac OS X 10_15_7) AppleWebKit/537.36 (KHTML, like Gecko) Chrome/139.0.0.0 Safari/537.36" version="28.1.2">
  <diagram name="Page-1" id="Sk-UAw3IjdKQqPnJdrxi">
    <mxGraphModel dx="2427" dy="1507" grid="1" gridSize="10" guides="1" tooltips="1" connect="1" arrows="1" fold="1" page="0" pageScale="1" pageWidth="850" pageHeight="1100" math="0" shadow="0">
      <root>
        <mxCell id="0" />
        <mxCell id="1" parent="0" />
        <mxCell id="2BgXQ9gDA_9UjF-8s2wS-40" style="edgeStyle=orthogonalEdgeStyle;rounded=0;orthogonalLoop=1;jettySize=auto;html=1;entryX=0;entryY=0.5;entryDx=0;entryDy=0;strokeWidth=2;" parent="1" source="2BgXQ9gDA_9UjF-8s2wS-9" target="2BgXQ9gDA_9UjF-8s2wS-35" edge="1">
          <mxGeometry relative="1" as="geometry">
            <Array as="points">
              <mxPoint x="-130" y="-254" />
              <mxPoint x="-130" y="249" />
            </Array>
          </mxGeometry>
        </mxCell>
        <mxCell id="2BgXQ9gDA_9UjF-8s2wS-14" style="edgeStyle=orthogonalEdgeStyle;rounded=0;orthogonalLoop=1;jettySize=auto;html=1;exitX=1;exitY=0.5;exitDx=0;exitDy=0;entryX=0;entryY=0.5;entryDx=0;entryDy=0;strokeWidth=2;" parent="1" source="2BgXQ9gDA_9UjF-8s2wS-5" target="2BgXQ9gDA_9UjF-8s2wS-8" edge="1">
          <mxGeometry relative="1" as="geometry" />
        </mxCell>
        <mxCell id="2BgXQ9gDA_9UjF-8s2wS-5" value="EPA GHGRP Facility Unit Fuel Type" style="html=1;overflow=block;blockSpacing=1;whiteSpace=wrap;fontSize=16.8;fontStyle=1;align=center;spacing=9;strokeOpacity=100;fillOpacity=0;rounded=0;absoluteArcSize=1;arcSize=12;fillColor=#000000;strokeWidth=2.3;lucidId=Bf6ri0L1tkaB;" parent="1" vertex="1">
          <mxGeometry x="-675" y="-160.5" width="190" height="112" as="geometry" />
        </mxCell>
        <mxCell id="2BgXQ9gDA_9UjF-8s2wS-15" style="edgeStyle=orthogonalEdgeStyle;rounded=0;orthogonalLoop=1;jettySize=auto;html=1;entryX=0;entryY=0.5;entryDx=0;entryDy=0;strokeWidth=2;" parent="1" source="2BgXQ9gDA_9UjF-8s2wS-6" target="2BgXQ9gDA_9UjF-8s2wS-8" edge="1">
          <mxGeometry relative="1" as="geometry" />
        </mxCell>
        <mxCell id="2BgXQ9gDA_9UjF-8s2wS-6" value="CO2 Emissions Factor by Fuel Type" style="html=1;overflow=block;blockSpacing=1;whiteSpace=wrap;fontSize=16.8;fontStyle=1;align=center;spacing=9;strokeOpacity=100;fillOpacity=0;rounded=0;absoluteArcSize=1;arcSize=12;fillColor=#000000;strokeWidth=2.3;lucidId=fg6rZgMcyNaT;" parent="1" vertex="1">
          <mxGeometry x="-681.25" y="-18" width="195" height="112" as="geometry" />
        </mxCell>
        <mxCell id="2BgXQ9gDA_9UjF-8s2wS-7" value="&lt;span style=&quot;color: rgb(0, 0, 0); font-family: Helvetica; font-style: normal; font-variant-ligatures: normal; font-variant-caps: normal; letter-spacing: normal; orphans: 2; text-indent: 0px; text-transform: none; widows: 2; word-spacing: 0px; -webkit-text-stroke-width: 0px; white-space: normal; text-decoration-thickness: initial; text-decoration-style: initial; text-decoration-color: initial; float: none; display: inline !important;&quot;&gt;&lt;font style=&quot;font-size: 16px;&quot;&gt;&lt;b&gt;Step 1: Project fuel consumption by state to the model year&lt;/b&gt;&lt;/font&gt;&lt;/span&gt;" style="text;whiteSpace=wrap;html=1;align=center;fontStyle=0" parent="1" vertex="1">
          <mxGeometry x="-678.75" y="-390" width="197.5" height="70" as="geometry" />
        </mxCell>
        <mxCell id="2BgXQ9gDA_9UjF-8s2wS-21" style="edgeStyle=orthogonalEdgeStyle;rounded=0;orthogonalLoop=1;jettySize=auto;html=1;exitX=1;exitY=0.5;exitDx=0;exitDy=0;entryX=0;entryY=0.5;entryDx=0;entryDy=0;strokeWidth=2;" parent="1" source="2BgXQ9gDA_9UjF-8s2wS-8" target="2BgXQ9gDA_9UjF-8s2wS-10" edge="1">
          <mxGeometry relative="1" as="geometry" />
        </mxCell>
        <mxCell id="2BgXQ9gDA_9UjF-8s2wS-8" value="Fuel Consumption by Facility Unit (2022)" style="html=1;overflow=block;blockSpacing=1;whiteSpace=wrap;fontSize=16.8;fontStyle=1;align=center;spacing=9;strokeOpacity=100;fillOpacity=0;rounded=1;absoluteArcSize=1;arcSize=12;fillColor=#000000;strokeWidth=2.3;lucidId=Bf6ri0L1tkaB;" parent="1" vertex="1">
          <mxGeometry x="-383.75" y="-159" width="190" height="109" as="geometry" />
        </mxCell>
        <mxCell id="2BgXQ9gDA_9UjF-8s2wS-41" style="edgeStyle=orthogonalEdgeStyle;rounded=0;orthogonalLoop=1;jettySize=auto;html=1;exitX=1;exitY=0.5;exitDx=0;exitDy=0;entryX=0;entryY=0.5;entryDx=0;entryDy=0;strokeWidth=2;" parent="1" source="2BgXQ9gDA_9UjF-8s2wS-9" target="2BgXQ9gDA_9UjF-8s2wS-10" edge="1">
          <mxGeometry relative="1" as="geometry">
            <Array as="points">
              <mxPoint x="-130" y="-254" />
              <mxPoint x="-130" y="-104" />
            </Array>
          </mxGeometry>
        </mxCell>
        <mxCell id="2BgXQ9gDA_9UjF-8s2wS-9" value="EIA AEO25 Industrial Fuel Use Projections (2023-2050)" style="html=1;overflow=block;blockSpacing=1;whiteSpace=wrap;fontSize=16.8;fontStyle=1;align=center;spacing=9;strokeOpacity=100;fillOpacity=0;rounded=0;absoluteArcSize=1;arcSize=12;strokeWidth=2.3;lucidId=Ra_jEc_tzvwS;" parent="1" vertex="1">
          <mxGeometry x="-387.5" y="-310" width="187.5" height="112" as="geometry" />
        </mxCell>
        <mxCell id="2BgXQ9gDA_9UjF-8s2wS-23" style="edgeStyle=orthogonalEdgeStyle;rounded=0;orthogonalLoop=1;jettySize=auto;html=1;exitX=1;exitY=0.5;exitDx=0;exitDy=0;strokeWidth=2;" parent="1" source="2BgXQ9gDA_9UjF-8s2wS-10" target="2BgXQ9gDA_9UjF-8s2wS-12" edge="1">
          <mxGeometry relative="1" as="geometry" />
        </mxCell>
        <mxCell id="2BgXQ9gDA_9UjF-8s2wS-10" value="Projected Combustion Fuel Use by Facility Unit" style="html=1;overflow=block;blockSpacing=1;whiteSpace=wrap;fontSize=16.8;fontStyle=1;align=center;spacing=9;strokeOpacity=100;fillOpacity=0;rounded=1;absoluteArcSize=1;arcSize=12;fillColor=#FFFFFF;strokeWidth=2.3;lucidId=Bf6ri0L1tkaB;" parent="1" vertex="1">
          <mxGeometry x="-70" y="-160.5" width="195" height="112" as="geometry" />
        </mxCell>
        <mxCell id="2BgXQ9gDA_9UjF-8s2wS-22" style="edgeStyle=orthogonalEdgeStyle;rounded=0;orthogonalLoop=1;jettySize=auto;html=1;exitX=1;exitY=0.5;exitDx=0;exitDy=0;entryX=0;entryY=0.5;entryDx=0;entryDy=0;" parent="1" source="2BgXQ9gDA_9UjF-8s2wS-11" target="2BgXQ9gDA_9UjF-8s2wS-12" edge="1">
          <mxGeometry relative="1" as="geometry" />
        </mxCell>
        <mxCell id="2BgXQ9gDA_9UjF-8s2wS-43" style="edgeStyle=orthogonalEdgeStyle;rounded=0;orthogonalLoop=1;jettySize=auto;html=1;exitX=1;exitY=0.5;exitDx=0;exitDy=0;entryX=0;entryY=0.5;entryDx=0;entryDy=0;strokeWidth=2;" parent="1" source="2BgXQ9gDA_9UjF-8s2wS-11" target="2BgXQ9gDA_9UjF-8s2wS-42" edge="1">
          <mxGeometry relative="1" as="geometry" />
        </mxCell>
        <mxCell id="2BgXQ9gDA_9UjF-8s2wS-11" value="% of Fuel Burned for High-Temp Heat" style="html=1;overflow=block;blockSpacing=1;whiteSpace=wrap;fontSize=16.8;fontStyle=1;align=center;spacing=9;strokeOpacity=100;fillOpacity=0;rounded=0;absoluteArcSize=1;arcSize=12;fillColor=#000000;strokeWidth=2.3;lucidId=Bf6ri0L1tkaB;" parent="1" vertex="1">
          <mxGeometry x="-70" y="-300" width="190" height="108" as="geometry" />
        </mxCell>
        <mxCell id="sNm1VXjRkImq6HYzUvwD-4" style="edgeStyle=orthogonalEdgeStyle;rounded=0;orthogonalLoop=1;jettySize=auto;html=1;exitX=0.5;exitY=1;exitDx=0;exitDy=0;entryX=0.5;entryY=0;entryDx=0;entryDy=0;" edge="1" parent="1" source="2BgXQ9gDA_9UjF-8s2wS-12" target="sNm1VXjRkImq6HYzUvwD-3">
          <mxGeometry relative="1" as="geometry" />
        </mxCell>
        <mxCell id="2BgXQ9gDA_9UjF-8s2wS-12" value="Projected High-Temp Combustion Fuel Use by Facility Unit" style="html=1;overflow=block;blockSpacing=1;whiteSpace=wrap;fontSize=16.8;fontStyle=1;align=center;spacing=9;strokeOpacity=100;fillOpacity=0;rounded=1;absoluteArcSize=1;arcSize=12;fillColor=#000000;strokeWidth=2.3;lucidId=Bf6ri0L1tkaB;" parent="1" vertex="1">
          <mxGeometry x="210" y="-160.5" width="195" height="112" as="geometry" />
        </mxCell>
        <mxCell id="2BgXQ9gDA_9UjF-8s2wS-18" style="edgeStyle=orthogonalEdgeStyle;rounded=0;orthogonalLoop=1;jettySize=auto;html=1;entryX=0;entryY=0.5;entryDx=0;entryDy=0;strokeWidth=2;" parent="1" source="2BgXQ9gDA_9UjF-8s2wS-17" target="2BgXQ9gDA_9UjF-8s2wS-8" edge="1">
          <mxGeometry relative="1" as="geometry">
            <Array as="points">
              <mxPoint x="-435" y="-244" />
              <mxPoint x="-435" y="-104" />
            </Array>
          </mxGeometry>
        </mxCell>
        <mxCell id="2BgXQ9gDA_9UjF-8s2wS-17" value="EPA GHGRP Fuel Combustion CO2 Emissions by Facility Unit (2022)" style="html=1;overflow=block;blockSpacing=1;whiteSpace=wrap;fontSize=16.8;fontStyle=1;align=center;spacing=9;strokeOpacity=100;fillOpacity=0;rounded=0;absoluteArcSize=1;arcSize=12;fillColor=#000000;strokeWidth=2.3;lucidId=Bf6ri0L1tkaB;" parent="1" vertex="1">
          <mxGeometry x="-676.25" y="-300" width="190" height="112" as="geometry" />
        </mxCell>
        <mxCell id="2BgXQ9gDA_9UjF-8s2wS-31" style="edgeStyle=orthogonalEdgeStyle;rounded=0;orthogonalLoop=1;jettySize=auto;html=1;curved=1;endArrow=classicThin;endFill=1;startArrow=classic;startFill=1;strokeWidth=2;" parent="1" edge="1">
          <mxGeometry relative="1" as="geometry">
            <mxPoint x="-300" y="-30" as="sourcePoint" />
            <mxPoint x="-250" y="32" as="targetPoint" />
            <Array as="points">
              <mxPoint x="-300" y="32" />
            </Array>
          </mxGeometry>
        </mxCell>
        <mxCell id="2BgXQ9gDA_9UjF-8s2wS-36" style="edgeStyle=orthogonalEdgeStyle;rounded=0;orthogonalLoop=1;jettySize=auto;html=1;exitX=1;exitY=0.5;exitDx=0;exitDy=0;entryX=0;entryY=0.5;entryDx=0;entryDy=0;strokeWidth=2;" parent="1" source="2BgXQ9gDA_9UjF-8s2wS-33" target="2BgXQ9gDA_9UjF-8s2wS-35" edge="1">
          <mxGeometry relative="1" as="geometry" />
        </mxCell>
        <mxCell id="2BgXQ9gDA_9UjF-8s2wS-33" value="Combustion&amp;nbsp;Fuel Use from non-GHGRP Facilities by Industry (2022)" style="html=1;overflow=block;blockSpacing=1;whiteSpace=wrap;fontSize=16.8;fontStyle=1;align=center;spacing=9;strokeOpacity=100;fillOpacity=0;rounded=1;absoluteArcSize=1;arcSize=12;fillColor=#000000;strokeWidth=2.3;lucidId=fg6rZgMcyNaT;" parent="1" vertex="1">
          <mxGeometry x="-380" y="129" width="183.75" height="110" as="geometry" />
        </mxCell>
        <mxCell id="2BgXQ9gDA_9UjF-8s2wS-38" style="edgeStyle=orthogonalEdgeStyle;rounded=0;orthogonalLoop=1;jettySize=auto;html=1;entryX=0;entryY=0.5;entryDx=0;entryDy=0;strokeWidth=2;" parent="1" source="2BgXQ9gDA_9UjF-8s2wS-34" target="2BgXQ9gDA_9UjF-8s2wS-35" edge="1">
          <mxGeometry relative="1" as="geometry" />
        </mxCell>
        <mxCell id="2BgXQ9gDA_9UjF-8s2wS-34" value="EPA FRS Facilities not in GHGRP, by Industry" style="html=1;overflow=block;blockSpacing=1;whiteSpace=wrap;fontSize=16.8;fontStyle=1;align=center;spacing=9;strokeOpacity=100;fillOpacity=0;rounded=0;absoluteArcSize=1;arcSize=12;fillColor=#000000;strokeWidth=2.3;lucidId=Bf6ri0L1tkaB;" parent="1" vertex="1">
          <mxGeometry x="-373.75" y="279" width="180" height="110" as="geometry" />
        </mxCell>
        <mxCell id="2BgXQ9gDA_9UjF-8s2wS-44" style="edgeStyle=orthogonalEdgeStyle;rounded=0;orthogonalLoop=1;jettySize=auto;html=1;exitX=1;exitY=0.5;exitDx=0;exitDy=0;strokeWidth=2;" parent="1" source="2BgXQ9gDA_9UjF-8s2wS-35" edge="1">
          <mxGeometry relative="1" as="geometry">
            <mxPoint x="210" y="248.75" as="targetPoint" />
          </mxGeometry>
        </mxCell>
        <mxCell id="2BgXQ9gDA_9UjF-8s2wS-35" value="Projected Combustion Fuel Use by Facility" style="html=1;overflow=block;blockSpacing=1;whiteSpace=wrap;fontSize=16.8;fontStyle=1;align=center;spacing=9;strokeOpacity=100;fillOpacity=0;rounded=1;absoluteArcSize=1;arcSize=12;fillColor=#000000;strokeWidth=2.3;lucidId=fg6rZgMcyNaT;" parent="1" vertex="1">
          <mxGeometry x="-65" y="199" width="190" height="100" as="geometry" />
        </mxCell>
        <mxCell id="2BgXQ9gDA_9UjF-8s2wS-32" value="EIA MECS Non-Feedstock Fuel Consumption Totals by Industry (2022)" style="html=1;overflow=block;blockSpacing=1;whiteSpace=wrap;fontSize=16.8;fontStyle=1;align=center;spacing=9;strokeOpacity=100;fillOpacity=0;rounded=0;absoluteArcSize=1;arcSize=12;strokeWidth=2.3;lucidId=Bf6ri0L1tkaB;fillColor=default;labelBackgroundColor=default;labelBorderColor=none;textShadow=0;fontColor=default;" parent="1" vertex="1">
          <mxGeometry x="-220" y="-18" width="180" height="110" as="geometry" />
        </mxCell>
        <mxCell id="sNm1VXjRkImq6HYzUvwD-9" style="edgeStyle=orthogonalEdgeStyle;rounded=0;orthogonalLoop=1;jettySize=auto;html=1;exitX=1;exitY=0.5;exitDx=0;exitDy=0;entryX=0;entryY=0.5;entryDx=0;entryDy=0;strokeWidth=2;" edge="1" parent="1" source="2BgXQ9gDA_9UjF-8s2wS-42" target="sNm1VXjRkImq6HYzUvwD-8">
          <mxGeometry relative="1" as="geometry" />
        </mxCell>
        <mxCell id="2BgXQ9gDA_9UjF-8s2wS-42" value="Projected High-Temp Combustion Fuel Use by Facility" style="html=1;overflow=block;blockSpacing=1;whiteSpace=wrap;fontSize=16.8;fontStyle=1;align=center;spacing=9;strokeOpacity=100;fillOpacity=0;rounded=1;absoluteArcSize=1;arcSize=12;fillColor=#000000;strokeWidth=2.3;lucidId=Bf6ri0L1tkaB;" parent="1" vertex="1">
          <mxGeometry x="210" y="193" width="195" height="112" as="geometry" />
        </mxCell>
        <mxCell id="2BgXQ9gDA_9UjF-8s2wS-46" style="edgeStyle=orthogonalEdgeStyle;rounded=0;orthogonalLoop=1;jettySize=auto;html=1;exitX=1;exitY=0.5;exitDx=0;exitDy=0;entryX=0;entryY=0.5;entryDx=0;entryDy=0;strokeWidth=2;" parent="1" source="2BgXQ9gDA_9UjF-8s2wS-45" target="2BgXQ9gDA_9UjF-8s2wS-35" edge="1">
          <mxGeometry relative="1" as="geometry" />
        </mxCell>
        <mxCell id="2BgXQ9gDA_9UjF-8s2wS-45" value="EIA MECS Non-Feedstock Fuel Use Mix by Industry (2022)" style="html=1;overflow=block;blockSpacing=1;whiteSpace=wrap;fontSize=16.8;fontStyle=1;align=center;spacing=9;strokeOpacity=100;fillOpacity=0;rounded=0;absoluteArcSize=1;arcSize=12;strokeWidth=2.3;lucidId=Bf6ri0L1tkaB;" parent="1" vertex="1">
          <mxGeometry x="-373.75" y="430" width="180" height="110" as="geometry" />
        </mxCell>
        <mxCell id="sNm1VXjRkImq6HYzUvwD-10" style="edgeStyle=orthogonalEdgeStyle;rounded=0;orthogonalLoop=1;jettySize=auto;html=1;exitX=1;exitY=0.5;exitDx=0;exitDy=0;entryX=0;entryY=0.5;entryDx=0;entryDy=0;strokeWidth=2;" edge="1" parent="1" source="sNm1VXjRkImq6HYzUvwD-3" target="sNm1VXjRkImq6HYzUvwD-8">
          <mxGeometry relative="1" as="geometry" />
        </mxCell>
        <mxCell id="sNm1VXjRkImq6HYzUvwD-3" value="Projected High-Temp Combustion Fuel Use by Facility" style="html=1;overflow=block;blockSpacing=1;whiteSpace=wrap;fontSize=16.8;fontStyle=1;align=center;spacing=9;strokeOpacity=100;fillOpacity=0;rounded=1;absoluteArcSize=1;arcSize=12;fillColor=#000000;strokeWidth=2.3;lucidId=Bf6ri0L1tkaB;" vertex="1" parent="1">
          <mxGeometry x="210" y="-10" width="195" height="112" as="geometry" />
        </mxCell>
        <mxCell id="sNm1VXjRkImq6HYzUvwD-11" style="edgeStyle=orthogonalEdgeStyle;rounded=0;orthogonalLoop=1;jettySize=auto;html=1;entryX=0;entryY=0.5;entryDx=0;entryDy=0;strokeWidth=2;" edge="1" parent="1" source="sNm1VXjRkImq6HYzUvwD-6" target="sNm1VXjRkImq6HYzUvwD-8">
          <mxGeometry relative="1" as="geometry" />
        </mxCell>
        <mxCell id="sNm1VXjRkImq6HYzUvwD-6" value="% Decarbonization of High-Temp Combustion Fuel Use via H2" style="html=1;overflow=block;blockSpacing=1;whiteSpace=wrap;fontSize=16.8;fontStyle=1;align=center;spacing=9;strokeOpacity=100;fillOpacity=0;rounded=0;absoluteArcSize=1;arcSize=12;fillColor=#000000;strokeWidth=2.3;lucidId=Bf6ri0L1tkaB;" vertex="1" parent="1">
          <mxGeometry x="215" y="350" width="190" height="108" as="geometry" />
        </mxCell>
        <mxCell id="sNm1VXjRkImq6HYzUvwD-8" value="Projected Hydrogen Demand by Facility" style="html=1;overflow=block;blockSpacing=1;whiteSpace=wrap;fontSize=16.8;fontStyle=1;align=center;spacing=9;strokeOpacity=100;fillOpacity=0;rounded=1;absoluteArcSize=1;arcSize=12;fillColor=#000000;strokeWidth=2.3;lucidId=Bf6ri0L1tkaB;" vertex="1" parent="1">
          <mxGeometry x="540" y="102" width="195" height="112" as="geometry" />
        </mxCell>
      </root>
    </mxGraphModel>
  </diagram>
</mxfile>
